<svg xmlns="http://www.w3.org/2000/svg" version="1.1" xmlns:xlink="http://www.w3.org/1999/xlink" xmlns:svgjs="http://svgjs.dev/svgjs" width="1000" height="1000" viewBox="0 0 1000 1000"><rect width="1000" height="1000" fill="#ffffff"></rect><g transform="matrix(0.7,0,0,0.7,149.57575757575756,282.1265587044535)"><svg viewBox="0 0 396 247" data-background-color="#636365" preserveAspectRatio="xMidYMid meet" height="623" width="1000" xmlns="http://www.w3.org/2000/svg" xmlns:xlink="http://www.w3.org/1999/xlink"><g id="tight-bounds" transform="matrix(1,0,0,1,0.2400000000000091,-0.09999999999999432)"><svg viewBox="0 0 395.52 247.2" height="247.2" width="395.52"><g><svg></svg></g><g><svg viewBox="0 0 395.52 247.2" height="247.2" width="395.52"><g transform="matrix(1,0,0,1,123.0566879885797,47.215199999999996)"><svg viewBox="0 0 149.4066240228406 152.7696" height="152.7696" width="149.4066240228406"><g><svg viewBox="0 0 149.4066240228406 152.7696" height="152.7696" width="149.4066240228406"><g><svg viewBox="0 0 201.13991194376226 205.66734636200746" height="152.7696" width="149.4066240228406"><g><svg viewBox="0 0 201.13991194376226 205.66734636200746" height="205.66734636200746" width="201.13991194376226"><g id="textblocktransform"><svg viewBox="0 0 201.13991194376226 205.66734636200746" height="205.66734636200746" width="201.13991194376226" id="textblock"><g><svg viewBox="0 0 201.13991194376226 151.825483872" height="151.825483872" width="201.13991194376226"><g transform="matrix(1,0,0,1,0,0)"><svg width="201.13991194376226" viewBox="1.850000023841858 -35.83000183105469 47.92000198364258 36.18000030517578" height="151.825483872" data-palette-color="#ffffff"><path d="M22.1-22.43L20.93-20.83Q20.73-20.55 20.53-20.4 20.33-20.25 19.95-20.25L19.95-20.25Q19.58-20.25 19.14-20.56 18.7-20.88 18.03-21.25 17.35-21.63 16.39-21.94 15.43-22.25 14.03-22.25L14.03-22.25Q12.18-22.25 10.75-21.59 9.33-20.93 8.36-19.68 7.4-18.43 6.91-16.65 6.43-14.88 6.43-12.68L6.43-12.68Q6.43-10.38 6.95-8.59 7.48-6.8 8.43-5.59 9.38-4.38 10.74-3.74 12.1-3.1 13.8-3.1L13.8-3.1Q15.43-3.1 16.48-3.49 17.53-3.88 18.23-4.35 18.93-4.83 19.38-5.21 19.83-5.6 20.28-5.6L20.28-5.6Q20.85-5.6 21.13-5.18L21.13-5.18 22.38-3.55Q20.73-1.53 18.25-0.59 15.78 0.35 13.03 0.35L13.03 0.35Q10.65 0.35 8.61-0.53 6.58-1.4 5.08-3.06 3.58-4.73 2.71-7.15 1.85-9.58 1.85-12.68L1.85-12.68Q1.85-15.5 2.64-17.9 3.43-20.3 4.94-22.04 6.45-23.78 8.68-24.75 10.9-25.73 13.78-25.73L13.78-25.73Q16.43-25.73 18.48-24.86 20.53-24 22.1-22.43L22.1-22.43ZM27.7-35.83L49.77-35.83 49.77-31.88 32.57-31.88 32.57-19.35 47.27-19.35 47.27-15.4 32.57-15.4 32.57 0 27.7 0 27.7-35.83Z" opacity="1" transform="matrix(1,0,0,1,0,0)" fill="#000000" class="wordmark-text-0" data-fill-palette-color="primary" id="text-0"></path></svg></g></svg></g><g transform="matrix(1,0,0,1,0,187.66783680256628)"><svg viewBox="0 0 201.13991194376226 17.999509559441186" height="17.999509559441186" width="201.13991194376226"><g transform="matrix(1,0,0,1,0,0)"><svg width="201.13991194376226" viewBox="2.25 -36.22999954223633 409.2799987792969 36.630001068115234" height="17.999509559441186" data-palette-color="#ffffff"><path d="M29.6-7.4L29.6-7.4Q30-7.4 30.33-7.08L30.33-7.08 32.23-5Q30.03-2.45 26.89-1.03 23.75 0.4 19.33 0.4L19.33 0.4Q15.45 0.4 12.3-0.94 9.15-2.27 6.93-4.69 4.7-7.1 3.48-10.48 2.25-13.85 2.25-17.9L2.25-17.9Q2.25-21.95 3.56-25.33 4.88-28.7 7.25-31.13 9.63-33.55 12.94-34.89 16.25-36.23 20.25-36.23L20.25-36.23Q24.2-36.23 27.06-35 29.93-33.77 32.15-31.68L32.15-31.68 30.58-29.45Q30.4-29.2 30.18-29.04 29.95-28.88 29.53-28.88L29.53-28.88Q29.2-28.88 28.84-29.11 28.48-29.35 27.98-29.7 27.48-30.05 26.8-30.45 26.13-30.85 25.2-31.2 24.28-31.55 23.05-31.79 21.83-32.02 20.23-32.02L20.23-32.02Q17.35-32.02 14.96-31.04 12.58-30.05 10.85-28.23 9.13-26.4 8.16-23.78 7.2-21.15 7.2-17.9L7.2-17.9Q7.2-14.55 8.16-11.93 9.13-9.3 10.79-7.49 12.45-5.68 14.73-4.73 17-3.78 19.63-3.78L19.63-3.78Q21.23-3.78 22.5-3.96 23.78-4.15 24.86-4.55 25.95-4.95 26.89-5.56 27.83-6.18 28.78-7.03L28.78-7.03Q29.2-7.4 29.6-7.4ZM71.88-17.9L71.88-17.9Q71.88-13.88 70.6-10.51 69.33-7.15 67-4.73 64.68-2.3 61.41-0.96 58.15 0.38 54.2 0.38L54.2 0.38Q50.25 0.38 47-0.96 43.75-2.3 41.43-4.73 39.1-7.15 37.83-10.51 36.55-13.88 36.55-17.9L36.55-17.9Q36.55-21.93 37.83-25.29 39.1-28.65 41.43-31.09 43.75-33.52 47-34.88 50.25-36.23 54.2-36.23L54.2-36.23Q58.15-36.23 61.41-34.88 64.68-33.52 67-31.09 69.33-28.65 70.6-25.29 71.88-21.93 71.88-17.9ZM66.9-17.9L66.9-17.9Q66.9-21.2 66-23.83 65.1-26.45 63.45-28.26 61.8-30.08 59.45-31.05 57.1-32.02 54.2-32.02L54.2-32.02Q51.33-32.02 48.98-31.05 46.63-30.08 44.96-28.26 43.3-26.45 42.4-23.83 41.5-21.2 41.5-17.9L41.5-17.9Q41.5-14.6 42.4-11.99 43.3-9.38 44.96-7.56 46.63-5.75 48.98-4.79 51.33-3.83 54.2-3.83L54.2-3.83Q57.1-3.83 59.45-4.79 61.8-5.75 63.45-7.56 65.1-9.38 66-11.99 66.9-14.6 66.9-17.9ZM98.03-32.52L96.85-30.23Q96.63-29.85 96.38-29.66 96.13-29.48 95.73-29.48L95.73-29.48Q95.3-29.48 94.74-29.9 94.18-30.33 93.31-30.84 92.45-31.35 91.24-31.78 90.03-32.2 88.3-32.2L88.3-32.2Q86.68-32.2 85.43-31.76 84.18-31.33 83.34-30.58 82.5-29.83 82.08-28.81 81.65-27.8 81.65-26.63L81.65-26.63Q81.65-25.13 82.39-24.14 83.13-23.15 84.34-22.45 85.55-21.75 87.09-21.24 88.63-20.73 90.24-20.18 91.85-19.63 93.39-18.94 94.93-18.25 96.14-17.2 97.35-16.15 98.09-14.63 98.83-13.1 98.83-10.88L98.83-10.88Q98.83-8.53 98.03-6.46 97.23-4.4 95.69-2.88 94.15-1.35 91.91-0.48 89.68 0.4 86.83 0.4L86.83 0.4Q83.35 0.4 80.49-0.86 77.63-2.13 75.6-4.28L75.6-4.28 77-6.58Q77.2-6.85 77.49-7.04 77.78-7.23 78.13-7.23L78.13-7.23Q78.65-7.23 79.33-6.66 80-6.1 81.01-5.43 82.03-4.75 83.46-4.19 84.9-3.63 86.98-3.63L86.98-3.63Q88.7-3.63 90.05-4.1 91.4-4.58 92.34-5.44 93.28-6.3 93.78-7.5 94.28-8.7 94.28-10.18L94.28-10.18Q94.28-11.8 93.54-12.84 92.8-13.88 91.6-14.58 90.4-15.28 88.86-15.76 87.33-16.25 85.71-16.76 84.1-17.28 82.56-17.95 81.03-18.63 79.83-19.7 78.63-20.78 77.89-22.39 77.15-24 77.15-26.38L77.15-26.38Q77.15-28.28 77.89-30.05 78.63-31.83 80.03-33.2 81.43-34.58 83.49-35.4 85.55-36.23 88.23-36.23L88.23-36.23Q91.23-36.23 93.7-35.27 96.18-34.33 98.03-32.52L98.03-32.52ZM101.35-35.83L129.4-35.83 129.4-31.75 117.83-31.75 117.83 0 112.98 0 112.98-31.75 101.35-31.75 101.35-35.83ZM146.35-35.83L160.68 0 156.93 0Q156.28 0 155.88-0.33 155.48-0.65 155.28-1.15L155.28-1.15 151.93-9.8 135.85-9.8 132.5-1.15Q132.33-0.7 131.9-0.35 131.48 0 130.85 0L130.85 0 127.1 0 141.43-35.83 146.35-35.83ZM142.83-27.85L137.2-13.3 150.58-13.3 144.95-27.88Q144.4-29.23 143.88-31.25L143.88-31.25Q143.6-30.23 143.34-29.36 143.08-28.5 142.83-27.85L142.83-27.85ZM174.85-35.83L196.93-35.83 196.93-31.88 179.73-31.88 179.73-19.35 194.43-19.35 194.43-15.4 179.73-15.4 179.73 0 174.85 0 174.85-35.83ZM215-35.83L229.33 0 225.58 0Q224.93 0 224.53-0.33 224.13-0.65 223.93-1.15L223.93-1.15 220.58-9.8 204.5-9.8 201.15-1.15Q200.98-0.7 200.55-0.35 200.13 0 199.5 0L199.5 0 195.75 0 210.08-35.83 215-35.83ZM211.48-27.85L205.85-13.3 219.23-13.3 213.6-27.88Q213.05-29.23 212.53-31.25L212.53-31.25Q212.25-30.23 211.99-29.36 211.73-28.5 211.48-27.85L211.48-27.85ZM253.38-32.52L252.2-30.23Q251.98-29.85 251.73-29.66 251.48-29.48 251.08-29.48L251.08-29.48Q250.65-29.48 250.09-29.9 249.53-30.33 248.66-30.84 247.8-31.35 246.59-31.78 245.38-32.2 243.65-32.2L243.65-32.2Q242.03-32.2 240.78-31.76 239.53-31.33 238.69-30.58 237.85-29.83 237.43-28.81 237-27.8 237-26.63L237-26.63Q237-25.13 237.74-24.14 238.48-23.15 239.69-22.45 240.9-21.75 242.44-21.24 243.98-20.73 245.59-20.18 247.2-19.63 248.74-18.94 250.28-18.25 251.49-17.2 252.7-16.15 253.44-14.63 254.18-13.1 254.18-10.88L254.18-10.88Q254.18-8.53 253.38-6.46 252.58-4.4 251.04-2.88 249.5-1.35 247.26-0.48 245.03 0.4 242.18 0.4L242.18 0.4Q238.7 0.4 235.84-0.86 232.98-2.13 230.95-4.28L230.95-4.28 232.35-6.58Q232.55-6.85 232.84-7.04 233.13-7.23 233.48-7.23L233.48-7.23Q234-7.23 234.68-6.66 235.35-6.1 236.36-5.43 237.38-4.75 238.81-4.19 240.25-3.63 242.33-3.63L242.33-3.63Q244.05-3.63 245.4-4.1 246.75-4.58 247.69-5.44 248.63-6.3 249.13-7.5 249.63-8.7 249.63-10.18L249.63-10.18Q249.63-11.8 248.89-12.84 248.15-13.88 246.95-14.58 245.75-15.28 244.21-15.76 242.68-16.25 241.06-16.76 239.45-17.28 237.91-17.95 236.38-18.63 235.18-19.7 233.98-20.78 233.24-22.39 232.5-24 232.5-26.38L232.5-26.38Q232.5-28.28 233.24-30.05 233.98-31.83 235.38-33.2 236.78-34.58 238.84-35.4 240.9-36.23 243.58-36.23L243.58-36.23Q246.58-36.23 249.05-35.27 251.53-34.33 253.38-32.52L253.38-32.52ZM289.4-35.83L289.4 0 284.52 0 284.52-16.3 265.23-16.3 265.23 0 260.35 0 260.35-35.83 265.23-35.83 265.23-19.85 284.52-19.85 284.52-35.83 289.4-35.83ZM303.9-35.83L303.9 0 299.05 0 299.05-35.83 303.9-35.83ZM346.78-17.9L346.78-17.9Q346.78-13.88 345.5-10.51 344.23-7.15 341.9-4.73 339.58-2.3 336.31-0.96 333.05 0.38 329.1 0.38L329.1 0.38Q325.15 0.38 321.9-0.96 318.65-2.3 316.33-4.73 314-7.15 312.73-10.51 311.45-13.88 311.45-17.9L311.45-17.9Q311.45-21.93 312.73-25.29 314-28.65 316.33-31.09 318.65-33.52 321.9-34.88 325.15-36.23 329.1-36.23L329.1-36.23Q333.05-36.23 336.31-34.88 339.58-33.52 341.9-31.09 344.23-28.65 345.5-25.29 346.78-21.93 346.78-17.9ZM341.8-17.9L341.8-17.9Q341.8-21.2 340.9-23.83 340-26.45 338.35-28.26 336.7-30.08 334.35-31.05 332-32.02 329.1-32.02L329.1-32.02Q326.23-32.02 323.88-31.05 321.53-30.08 319.86-28.26 318.2-26.45 317.3-23.83 316.4-21.2 316.4-17.9L316.4-17.9Q316.4-14.6 317.3-11.99 318.2-9.38 319.86-7.56 321.53-5.75 323.88-4.79 326.23-3.83 329.1-3.83L329.1-3.83Q332-3.83 334.35-4.79 336.7-5.75 338.35-7.56 340-9.38 340.9-11.99 341.8-14.6 341.8-17.9ZM355.9-35.83L355.9-35.83Q356.55-35.83 356.86-35.66 357.18-35.5 357.58-35L357.58-35 378.33-8Q378.25-8.65 378.23-9.26 378.2-9.88 378.2-10.45L378.2-10.45 378.2-35.83 382.45-35.83 382.45 0 380 0Q379.43 0 379.04-0.2 378.65-0.4 378.28-0.88L378.28-0.88 357.55-27.85Q357.6-27.23 357.63-26.63 357.65-26.03 357.65-25.53L357.65-25.53 357.65 0 353.4 0 353.4-35.83 355.9-35.83ZM410.73-32.52L409.55-30.23Q409.33-29.85 409.08-29.66 408.83-29.48 408.43-29.48L408.43-29.48Q408-29.48 407.44-29.9 406.88-30.33 406.01-30.84 405.15-31.35 403.94-31.78 402.73-32.2 401-32.2L401-32.2Q399.38-32.2 398.13-31.76 396.88-31.33 396.04-30.58 395.2-29.83 394.78-28.81 394.35-27.8 394.35-26.63L394.35-26.63Q394.35-25.13 395.09-24.14 395.83-23.15 397.04-22.45 398.25-21.75 399.79-21.24 401.33-20.73 402.94-20.18 404.55-19.63 406.09-18.94 407.63-18.25 408.84-17.2 410.05-16.15 410.79-14.63 411.53-13.1 411.53-10.88L411.53-10.88Q411.53-8.53 410.73-6.46 409.93-4.4 408.39-2.88 406.85-1.35 404.61-0.48 402.38 0.4 399.53 0.4L399.53 0.4Q396.05 0.4 393.19-0.86 390.33-2.13 388.3-4.28L388.3-4.28 389.7-6.58Q389.9-6.85 390.19-7.04 390.48-7.23 390.83-7.23L390.83-7.23Q391.35-7.23 392.03-6.66 392.7-6.1 393.71-5.43 394.73-4.75 396.16-4.19 397.6-3.63 399.68-3.63L399.68-3.63Q401.4-3.63 402.75-4.1 404.1-4.58 405.04-5.44 405.98-6.3 406.48-7.5 406.98-8.7 406.98-10.18L406.98-10.18Q406.98-11.8 406.24-12.84 405.5-13.88 404.3-14.58 403.1-15.28 401.56-15.76 400.03-16.25 398.41-16.76 396.8-17.28 395.26-17.95 393.73-18.63 392.53-19.7 391.33-20.78 390.59-22.39 389.85-24 389.85-26.38L389.85-26.38Q389.85-28.28 390.59-30.05 391.33-31.83 392.73-33.2 394.13-34.58 396.19-35.4 398.25-36.23 400.93-36.23L400.93-36.23Q403.93-36.23 406.4-35.27 408.88-34.33 410.73-32.52L410.73-32.52Z" opacity="1" transform="matrix(1,0,0,1,0,0)" fill="#000000" class="slogan-text-1" data-fill-palette-color="secondary" id="text-1"></path></svg></g></svg></g></svg></g></svg></g></svg></g></svg></g></svg></g><path d="M93.769 41.215L93.769 0 340.969 0 340.969 247.2 93.769 247.2 93.769 205.985 103.939 205.985 103.939 237.03 330.798 237.03 330.798 10.17 103.939 10.17 103.939 41.215Z" fill="#000000" stroke="transparent" data-fill-palette-color="primary"></path></svg></g><defs></defs></svg><rect width="395.52" height="247.2" fill="none" stroke="none" visibility="hidden"></rect></g></svg></g></svg>